<?xml version="1.0" encoding="utf-8"?>
<!-- Generator: Adobe Illustrator 27.2.0, SVG Export Plug-In . SVG Version: 6.00 Build 0)  -->
<svg version="1.1" id="Layer_1" xmlns="http://www.w3.org/2000/svg" xmlns:xlink="http://www.w3.org/1999/xlink" x="0px" y="0px"
	 viewBox="0 0 211 281" style="enable-background:new 0 0 211 281;" xml:space="preserve">
<style type="text/css">
	.st0{clip-path:url(#SVGID_00000031907430275418932900000008078684752509787291_);}
	.st1{clip-path:url(#SVGID_00000048461737896518740990000012772186973605446049_);fill:#FFFFFF;}
	.st2{clip-path:url(#SVGID_00000048461737896518740990000012772186973605446049_);fill:#D4CDC3;}
	.st3{fill:#9A0E20;}
	.st4{fill:none;}
	.st5{fill:#D4CDC3;}
</style>
<g>
	<defs>
		<rect id="SVGID_1_" y="0.3" width="210.7" height="280.6"/>
	</defs>
	<clipPath id="SVGID_00000178922734887172177700000001872066923622749336_">
		<use xlink:href="#SVGID_1_"  style="overflow:visible;opacity:8.000000e-02;"/>
	</clipPath>
	<g style="clip-path:url(#SVGID_00000178922734887172177700000001872066923622749336_);">
		<defs>
			<rect id="SVGID_00000065761593938377256580000006882600849540264590_" width="211" height="281"/>
		</defs>
		<clipPath id="SVGID_00000106113967378777274220000002340549098714772887_">
			
				<use xlink:href="#SVGID_00000065761593938377256580000006882600849540264590_"  style="overflow:visible;opacity:8.000000e-02;"/>
		</clipPath>
		<path style="clip-path:url(#SVGID_00000106113967378777274220000002340549098714772887_);fill:#FFFFFF;" d="M195.9,0.7L15,0.7
			C14.3,7.3,8.1,12.6,0.3,13.2v255.3c7.6,0.7,13.7,5.7,14.6,12.2h181c0.9-6.4,6.9-11.4,14.4-12.1V13.2
			C202.6,12.5,196.6,7.2,195.9,0.7"/>
		<path style="clip-path:url(#SVGID_00000106113967378777274220000002340549098714772887_);fill:#D4CDC3;" d="M195.9,0.7V0.4
			l-181.2,0l0,0.3C14,7.1,7.9,12.2,0.3,12.9l-0.3,0v255.9l0.3,0c7.5,0.7,13.4,5.6,14.3,11.9l0,0.3h181.6l0-0.3
			c0.9-6.2,6.7-11.1,14.1-11.9l0.3,0V12.9l-0.3,0c-7.6-0.7-13.5-5.9-14.2-12.2l0-0.3h-0.3V0.7l-0.3,0c0.8,6.7,7,12.1,14.8,12.8
			l0-0.3H210v255.3h0.3l0-0.3c-7.6,0.7-13.8,5.9-14.7,12.4l0.3,0v-0.3h-181v0.3l0.3,0c-1-6.6-7.2-11.8-14.9-12.4l0,0.3h0.3V13.2H0.3
			l0,0.3c7.9-0.7,14.2-6.1,14.9-12.9l-0.3,0V1l180.9,0L195.9,0.7l-0.3,0L195.9,0.7"/>
	</g>
</g>
<path class="st3" d="M205.6,46.5L5,46.5V17.8c7.6-0.8,13.6-5.5,14.3-12.5l172.2,0c0.7,6.4,6,11.5,14.1,12.3V46.5"/>
<path id="SVGID_x5F_00000106105879919233046450000016281158556155614139_x5F_" class="st4" d="M210.3,46.5H210v-33
	c-7.6-0.8-13.5-6-14.4-12.5L15.3,1c-0.9,6.6-7,11.8-14.6,12.5v33H0.3V13.2c7.8-0.7,13.9-6,14.6-12.6l180.9,0l-0.3,0l0.3,0
	c0.7,6.6,6.8,11.8,14.5,12.5V46.5"/>
<text><textPath  xlink:href="#SVGID_x5F_00000106105879919233046450000016281158556155614139_x5F_" startOffset="19.6135%">
</textPath>
</text>
<path class="st5" d="M191.2,5.7V5.4l-171.9,0l0,0.3c-0.7,6.3-6.5,11.4-14,12.1l-0.3,0V264l0.3,0c7.3,0.6,13.1,5.5,13.9,11.7l0,0.3
	h172.3l0-0.3c0.9-6.1,6.6-11,13.8-11.7l0.3,0V17.7l-0.3,0c-7.4-0.7-13.1-5.8-13.8-12l0-0.3h-0.3V5.7l-0.3,0
	c0.7,6.6,6.8,11.9,14.4,12.6l0-0.3H205v245.7h0.3l0-0.3c-7.5,0.7-13.4,5.8-14.3,12.2l0.3,0v-0.3H19.5v0.3l0.3,0
	c-0.9-6.5-7-11.6-14.5-12.2l0,0.3h0.3V18H5.3l0,0.3c7.7-0.7,13.8-6,14.6-12.6l-0.3,0V6l171.6,0V5.7l-0.3,0L191.2,5.7"/>
<rect class="st4" width="211" height="281"/>
</svg>
