<?xml version="1.0" encoding="UTF-8"?>
<svg id="_Слой_2" data-name="Слой 2" xmlns="http://www.w3.org/2000/svg" viewBox="0 0 662.17 328.93">
  <defs>
    <style>
      .cls-1 {
        fill: #fff;
      }
    </style>
  </defs>
  <g id="Layer_1" data-name="Layer 1">
    <path class="cls-1" d="m662.01,105.96c-.83-1.59-15.42-16.77-85.18,11.28-31.72,12.75-57.75,39.24-55.25,41.54.91.83,5.98,5.36,5.98,5.36,21.18-4.32,47.51,1.5,55.02,7.8,0,0,0,0,0,0-8.93,9.41-21.12,33.58-23.76,33.16-2.93-.46,4.01-26.1,3.71-27.8-.31-1.7-9.57-4.63-11.12-4.63s-2.78,8.34-2.78,8.34c0,0-14.05,24.86-16.68,25.94-2.62,1.08,3.55-31.66,3.71-33.36s-7.57-4.63-10.19-4.63c-.53,0-1.15,1.64-1.8,4.28h0s-5.17,15.12-12.1,25.38c-5.12,7.58-10.34,12.5-12.04,12.05-4.01-1.08,9.57-33.97,10.19-36.14.62-2.16-.77-3.55-6.49-5.56-5.71-2.01-27.95,36.45-30.58,37.06-2.62.62,3.4-32.28,2.78-34.28-.62-2.01-9.11-2.86-9.11-2.86,0,0-7.39,22.04-14.05,32.51-4.58,7.18-9,8.97-10.19,8.34-1.53-.81-3.74-11.57.8-26.46-1.57-2.1-5.13-4.26-7.68-4.32-3.13,1.66-11.12,10.41-13.51,13.17-6.55,7.59-15.38,14.82-16.68,13.9-2.38-1.69,4.93-12.75,10.27-19.92,7.96-10.7,17.53-12.51,17.53-12.51,0,0-.51,11.76,5.56-.93.92-2.49-1.51-7.05-13.9-2.78-3.22,1.29-6.36,3.12-9.34,5.27h-.01c-12.51,8.05-26.73,17.81-37.7,25.47,1.21-1.53,2.38-3.13,3.5-4.8,9.89-14.75,16.24-33.91,15.75-35.21-.79-2.11-3.62-5.35-5.58-6.24-.24-.26-.54-.37-.91-.24-11.76,3.88-29.15,25.35-37.8,42.2.54-13.89.9-24.49.74-24.6-.46-.31-7.57-2.78-9.27-2.78-.11,0-.24.41-.37,1.15-1.41,4.3-6.68,19.74-12.6,28.5-5.12,7.58-10.34,12.5-12.04,12.05-4.02-1.08,9.57-33.97,10.19-36.14.62-2.16-.77-3.55-6.49-5.56-5.71-2.01-30.73,36.45-33.36,37.06-2.62.62,6.18-32.28,5.56-34.28-.62-2.01-6.75-5.18-8.45-5.18-1.31,1.83-7.22,7.16-13.84,12.71.8-7.73-1.72-15.09-10.14-20.5,0,0-8.97-4.63-28.73,2.78-2.57.97-4.56-1.43-4.63-1.85-.15-.92,59.46-51.5,115.82-53.74,4.21-.17,5.56,6.49,5.56,6.49,0,0,9.88-3.55,8.34-6.49-.83-1.59-15.42-16.77-85.18,11.28-31.72,12.75-57.75,39.24-55.25,41.54,3.91,3.59,8.91,7.83,14.41,6.49,22.7-5.56,37.76-.24,30.31,21.7-3.56,2.78-6.77,5.15-8.98,6.56-3.42-2.73,1.22-14.36,2.08-16.37-.98-4.25-10.16-8.18-10.44-8.18-1.14,0-11.15,6.4-14.83,16.68-2.75,7.69-2.18,17.42-1.18,22.86-5.29,10.56-15.48,15.33-16.87,6.87-3.99-24.43,8.09-35,9.28-37.45-.31-2.62-7.44-8.97-8.83-8.97-.41,0-4.29,5.41-7.12,13.93,0,0,0,0,0,.01-3,7.99-8.53,10.32-16.02,9.49,0,0-1.28,1.69-2.79,2.51,1.11.9,3.81,4.48,1.85,11.12-1,3.41-3.63,5.04-4.63,4.63-3.78-1.52-1.67-14.8.93-22.24,3.65-10.47,11.12-14.83,11.12-14.83,0,0-5.4-4.63-7.41-4.63-.12,0-.39.14-.78.4l-.03-.11c-8.47,2-11.7,2.71-18.65,5.56-.93-15.99-14.12-19.45-19-20.49,9.36-8.96,20.46-20.23,29-30.56,32.92-39.82,60.61-89.77,35.13-113.93-29.91-28.37-88.84,10.96-120.1,38.81l-.09-20.51-12.05-2.78.29,34.6c-1.21,1.25-2.3,2.44-3.28,3.54C8,144,.44,173.67.14,175.06c0,0-1.86,9.35,8.15,1.33,7.79-7.32,34.1-43.43,21.56-42.38,9.09-15.29,24.18-35.79,51.26-63.83.61-.63,1.21-1.23,1.81-1.84l.87,102.65c-12.39,8.12-22.78,20.11-24,28.39-.54,3.68.8,5.87,2.02,7.05,1.24,1.2,3.12,1.75,5.57,1.61,3.76-.21,9.55-2.15,16.68-5.56l.36,42.46,11.12.93-.21-49.39c15.34-8.9,34.13-22.47,52.01-39.18,5.33.69,13.55,5.55,12.05,21.82-34.41,15.3-50.6,40.04-52.13,50.65-.53,3.63.3,6.71,6.22,6.63,31.8,0,54.41-38.41,56.09-57.66,5.33-2.25,8.52-3.22,13.64-4.48-3.81,4.47-8.44,11.71-10.76,21.56-2.84,12.04,4.21,21.21,9.27,22.24,4.74.96,9.39-2.43,11.41-7.09,4.03-8.38-.21-14.94-.21-14.94,2.15-.06,5.51-.68,8.26-2.07.91-.46,1.78-.98,2.59-1.52-1.03,6.56-1.04,14.05,1.12,21.91,4.73,17.2,20.62,9.29,26.41-1.3,2.82,3.04,9.5,5.89,12.85,5.89,4.29,0,22.53-17.23,27.32-34.45,5.39-4,9.94-7.39,10.33-7.2.93.46-5.4,29.5-4.63,32.43.77,2.93,4.02,8.34,6.49,8.34s26.87-32.28,27.8-31.5c.93.77-4.79,21.31-3.71,25.02,1.08,3.71,6.64,6.49,9.27,6.49,1.12,0,7.6-5.79,13.8-14.11,4.36-5.85,8.43-13.03,11.31-18.54-1.7,25.66-3.41,72.31-1.95,72.65,2.01.46,8.96,4.63,9.27,3.71.17-.53,1.49-29.26,2.51-54.12,3.12-12.94,24.01-37.63,35.6-45.77-2.42,7.6-6.81,19.93-14.95,33.03-8.32,13.39-17.61,18.53-17.61,18.53,0,0,1.7,4.63,3.71,4.63.25,0,1.32-.64,2.9-1.82l.07.08c.28-.2,20.48-15.26,40.88-29.37-7.68,8.95-12.57,18.22-12.34,20.91.86,9.87,8.34,10.19,12.04,10.19s25.95-25.94,25.95-25.94c0,0-.92,10.06.93,17.61,1.17,4.76,3.71,8.34,7.41,8.34,3.03,0,8.43-.11,12.97-5.56,4.72-5.67,9.4-13.8,12.98-20.73-1.17,7.99-2.26,16.46-1.86,17.95.77,2.93,4.01,8.34,6.49,8.34s24.09-32.28,25.02-31.5c.93.77-4.79,21.31-3.71,25.02,1.08,3.71,6.64,6.49,9.26,6.49,1.12,0,6.77-4.65,12.97-12.97,3.85-5.17,7.53-11.44,10.36-16.68-1.47,10.55-2.5,21.74-2.02,23.17.93,2.78,8.18,6.49,10.19,6.49s18.53-26.87,18.53-26.87c0,0-2.62,16.28-2.27,18.66.62,4.17,6.91,8.21,8.76,8.21s21.31-27.8,21.31-27.8c0,0-5.27,17.36-5.27,20.3s6.2,7.5,8.98,7.5c1.46,0,10.35-9.31,18.45-18.12-1.89,4.77-2.62,8.56-2.08,9.96,3.13,8.14,9.61,8.53,13.21,7.79,2.37-.49,21.4-9.24,28.94-22.03,1.26-2.77-.91-4.51-1.95-4.3-5.44,11.19-25.28,20-27.67,19.27-1.75-.53-.81-5.58.48-11.32,2.68.4,6.09-.03,9.81-2.8,8.44-6.3,13.19-16.18,15.04-22.59,3.58-12.4-12.87-2.11-14.24-1.27-5.72,3.5-10.48,8.55-14.21,13.82-5.39,6.46-18.66,21.98-22.08,22.34-4.33.46,9.55-31.02,12.97-34.28-22.09-18.4-63.54-14.42-63.6-14.83-.15-.92,52.13-45.43,115.82-53.74,4.18-.55,5.56,6.49,5.56,6.49,0,0,9.88-3.55,8.34-6.49ZM70.95,202.46c-4.52.63-3.97-2.69-3.72-4.42.9-6.1,6.41-15.14,16.6-22.55l.19,22.67c-5.04,2.64-9.4,4.12-13.07,4.29Zm24.35-11.31l-.09-22.26c13.6-6.57,28.8-11.3,41.14-12.11-16.12,14.76-29.79,26.49-41.04,34.37Zm41.37-34.39c1.12-.07,2.23-.11,3.3-.11.04,0-2.41.08-3.3.11Zm1.91-3.76c-13.59-.02-29.47,5.17-43.4,11.78l-.46-107.92C133.82,20.72,168.21,7.21,188.56,6.98c8.93-.1,16.03,2.22,20.57,6.71,18.46,18.26-7.62,66.09-39.94,105.18-9.04,10.94-20.56,24.69-30.6,34.13Zm-13.52,76.96c-9.05,2.58-11.25-2.15-9.42-6.55,1.26-3.04,9.6-24.73,43.16-40.26-1.79,17-16.85,41.15-33.74,46.82Zm118.72-19.3c-1.12-.52-5.27-10.29-.93-22.24,1.37-3.77,3.51-6.85,5.62-9.22-1.1,6.94-1.3,18.99,4.57,17.56,1.01-.05,3.86-1.82,7.39-4.27-5.53,10.94-13.14,19.8-16.66,18.16Zm368.71-20.96c5.3-8.14,15.93-17.44,17.38-16.38,1.45,1.06-12.12,22.28-19.93,21.49.68-1.79,1.52-3.53,2.55-5.11Zm-120.69-22.69s-5.67-1.76-5.23-3.81c1.08-5.05,21.16-29.79,42.92-38.53,0-5.29-7.62-7.84-13.12-4.53-27.02,16.29-34.32,41.31-33.75,43.63.57,2.32,9.17,3.24,9.17,3.24Z"/>
    <path class="cls-1" d="m143.29,245.75h188.73v-2.59h-187.57l-1.15,2.59Zm2.37-5.32h186.36v-2.59h-185.21l-1.15,2.59Zm222.72,5.32h237.19l1.15-2.59h-238.34v2.59Zm0-7.91v2.59h239.56l1.15-2.59h-240.71Z"/>
    <path class="cls-1" d="m129.08,295.9v-.35c3.71-2.03,4.24-10.33,9.54-10.33,1.5,0,2.83.44,4.33,1.06l1.59-20.76c-3.53-1.15-7.33-1.94-11.48-1.94-20.67,0-17.67,23.14-21.73,23.14h-1.77v-21.82h-25v62.71h25.53l-.26-22.52h.71c2.47,0,3.53,1.77,8.74,23.14l26.32-.62c-11.22-29.41-13.16-30.47-16.52-31.71Zm71.82-1.06v-.44c5.39-.79,10.69-3.89,10.69-13.43s-7.51-16.08-22.35-16.08h-35.24v62.71h35.6c13.43,0,25.35-3.97,25.35-18.46,0-10.51-7.6-13.69-14.04-14.31Zm-23.5-15.81h4.24c3.89,0,5.39,2.12,5.39,5.39,0,4.15-2.39,5.57-6.01,5.57h-3.62v-10.95Zm6.62,33.48h-4.59v-11.49h3.97c3.62,0,5.92,2.12,5.92,5.66s-.97,5.83-5.3,5.83Zm71.99-48.94c-11.31,0-22.44,2.65-32.15,7.07l3.27,19.26c7.68-3.98,16.52-7.6,24.47-7.6,3.71,0,6.01,1.06,6.36,3.98-9.01.18-17.14,2.03-23.23,5.12-7.33,3.71-11.84,9.54-11.84,17.67,0,14.93,11.84,19.88,23.5,19.88,12.54,0,21.11-5.21,25.17-7.95l3.71,7.33h7.24v-41.34c0-17.75-9.63-23.41-26.5-23.41Zm2.03,44.52c-1.68,1.41-3.98,2.3-6.01,2.3-2.56,0-3.53-1.24-3.53-2.91,0-3.09,3.97-4.51,9.54-5.21v5.83Zm70.93-43.2h-34.98v62.71h25v-17.31l5.83-.27c15.9-.71,25.79-9.72,25.79-23.05s-7.68-22.08-21.64-22.08Zm-6.89,28.71h-3.62v-11.75h4.24c3.89,0,5.39,2.12,5.39,5.39,0,4.15-2.38,6.36-6.01,6.36Zm35.6-7.51l16.69-.44v41.96h25v-41.96l16.69.44v-21.2h-58.39v21.2Zm173.45-21.2h-34.98v62.71h25v-17.31l5.83-.27c15.9-.71,25.79-9.72,25.79-23.05s-7.68-22.08-21.64-22.08Zm-6.89,28.71h-3.62v-11.75h4.24c3.89,0,5.39,2.12,5.39,5.39,0,4.15-2.38,6.36-6,6.36Zm73.79-28.71l-8.48,24.12-9.63-24.12h-25.97l16.61,33.83,7.15,8.83v.35c-1.77.53-4.06.71-6.45.71-3.53,0-8.13-.44-13.51-2.56l-1.86,20.67c5.04,1.33,10.51,2.21,16.87,2.21,15.37,0,26.68-4.42,33.39-21.91l16.08-42.13h-24.2Zm-137,39.4c-1.24,1.59-3.36,2.74-5.65,2.74-3.62,0-5.92-1.77-5.92-6.89v-35.25h-25v40.9c0,18.73,12.72,23.14,22.44,23.14s15.72-4.5,17.67-10.07h.53c2.21,7.6,8.75,10.07,15.81,10.07,1.59,0,3.43-.27,5.12-.66v-63.38h-25v39.4Z"/>
  </g>
</svg>